<?xml version="1.0" standalone="no"?>
<!DOCTYPE svg PUBLIC "-//W3C//DTD SVG 20010904//EN"
 "http://www.w3.org/TR/2001/REC-SVG-20010904/DTD/svg10.dtd">
<svg version="1.0" xmlns="http://www.w3.org/2000/svg"
 width="200.000000pt" height="200.000000pt" viewBox="0 0 200.000000 200.000000"
 preserveAspectRatio="xMidYMid meet">

<g transform="translate(0.000000,200.000000) scale(0.100000,-0.100000)"
fill="#000000" stroke="none">
<path d="M901 1743 c-52 -126 -97 -232 -101 -237 -5 -4 -24 3 -43 18 -18 14
-39 26 -45 26 -7 0 -12 5 -12 10 0 6 -4 10 -10 10 -5 0 -32 16 -59 35 -26 19
-51 35 -55 35 -3 0 -29 16 -56 36 -28 20 -53 34 -55 32 -3 -3 13 -85 35 -183
45 -202 48 -225 23 -225 -44 -1 -495 -39 -499 -42 -2 -2 80 -75 181 -162 170
-144 202 -176 176 -176 -6 0 -21 -10 -35 -23 -13 -12 -39 -33 -56 -47 -45 -35
-88 -71 -123 -102 -18 -16 -35 -28 -39 -28 -5 0 -8 -6 -8 -13 0 -9 52 -18 198
-31 108 -10 198 -19 200 -20 1 -2 -27 -124 -63 -271 -36 -147 -64 -269 -62
-271 2 -2 102 57 222 131 121 74 220 133 222 132 1 -2 31 -76 66 -166 l64
-163 74 171 c40 94 79 171 86 171 7 0 115 -63 240 -140 125 -76 228 -138 230
-136 2 2 -24 119 -59 259 -34 141 -58 260 -54 264 4 4 92 13 194 19 103 6 182
12 177 13 -6 0 -27 16 -47 34 -19 17 -59 52 -87 77 -110 96 -143 129 -136 139
3 6 91 83 196 172 104 89 188 164 185 166 -4 4 -454 42 -503 43 -15 0 -23 6
-23 18 0 9 22 99 48 199 l48 182 -45 -26 c-25 -15 -65 -39 -89 -55 -24 -15
-45 -28 -47 -28 -3 0 -39 -20 -81 -45 -42 -25 -78 -44 -80 -42 -2 2 -44 101
-94 221 -49 120 -94 224 -98 232 -5 10 -38 -59 -101 -213z m220 -628 c103 143
119 160 147 163 18 2 32 1 32 -2 0 -4 -24 -43 -53 -89 -68 -106 -69 -107 -64
-107 3 0 40 43 82 95 50 61 84 95 97 95 19 0 19 -1 -3 -37 -12 -21 -35 -57
-51 -80 -47 -70 -31 -59 43 31 63 78 99 105 99 76 0 -6 -15 -34 -33 -63 -50
-78 -53 -86 -16 -42 74 87 95 107 112 104 16 -4 14 -10 -13 -54 -29 -47 -25
-44 32 23 22 27 58 39 58 20 0 -5 -7 -21 -16 -36 -14 -23 -12 -22 12 6 17 19
39 32 52 32 20 0 22 -2 11 -22 -12 -22 -11 -22 8 -6 21 19 89 23 173 9 49 -8
55 -5 -605 -217 -115 -36 -218 -74 -228 -83 -10 -8 -118 -153 -240 -321 -297
-410 -298 -412 -302 -408 -2 2 6 46 19 97 17 71 27 96 42 102 15 6 16 8 2 8
-27 1 -9 40 26 56 29 13 30 14 4 9 -21 -5 -28 -2 -28 9 0 19 16 31 73 52 61
23 55 30 -8 10 -27 -8 -50 -13 -52 -12 -1 2 0 12 3 23 4 14 28 29 80 48 41 16
73 30 71 32 -2 2 -34 -5 -71 -16 l-67 -19 3 21 c2 17 23 29 95 56 51 20 91 37
89 39 -2 2 -39 -5 -82 -16 -43 -11 -80 -18 -82 -16 -15 15 21 38 122 76 64 24
113 45 108 46 -4 2 -53 -10 -109 -26 l-103 -28 0 21 c0 12 5 27 10 32 6 6 94
37 195 70 102 32 185 61 185 64 -1 3 -87 33 -193 67 -106 34 -300 97 -432 140
l-240 78 55 7 c89 11 145 12 160 3 9 -5 11 -4 6 3 -5 8 1 12 18 12 16 0 36
-13 57 -37 l32 -38 -22 36 c-26 44 -26 49 -2 49 11 0 35 -21 57 -50 40 -53 57
-67 30 -25 -9 14 -23 36 -32 50 -16 24 -16 25 7 25 17 0 38 -17 72 -60 27 -33
51 -60 53 -60 3 0 -12 25 -31 56 -29 44 -34 59 -23 65 13 9 15 8 111 -101 l48
-55 -44 70 c-24 39 -47 76 -51 83 -5 8 -1 12 12 12 13 0 49 -36 102 -100 44
-55 83 -100 85 -100 3 0 -25 45 -60 100 -54 84 -62 102 -49 107 10 3 22 0 28
-8 44 -58 209 -259 212 -259 2 0 -39 65 -91 145 -52 80 -95 150 -95 155 0 29
26 10 86 -62 37 -46 74 -90 83 -98 18 -18 14 -11 -78 132 -46 72 -60 101 -53
113 7 13 19 3 66 -54 32 -39 60 -71 62 -71 5 0 -34 63 -78 128 -21 30 -27 49
-22 64 l7 22 21 -25 c11 -13 36 -42 55 -64 19 -22 27 -29 19 -15 -8 14 -30 49
-47 77 -22 36 -30 59 -26 73 6 20 9 19 42 -17 l34 -38 -31 48 c-21 32 -29 54
-25 68 7 21 7 21 33 -3 l26 -23 -23 33 c-22 31 -22 34 -7 57 9 14 14 25 10 25
-3 0 0 10 8 23 8 12 27 56 43 97 l30 75 5 -460 5 -460 116 160z m-51 535 c-6
-12 -14 -20 -17 -17 -2 3 1 14 8 26 17 26 24 19 9 -9z m-493 -44 c37 -25 73
-49 79 -54 6 -5 20 -13 32 -16 15 -5 22 -16 23 -34 1 -17 3 -21 6 -9 2 9 8 17
12 17 14 0 31 -24 32 -44 0 -21 0 -21 9 -1 7 16 9 17 9 3 1 -9 -3 -20 -9 -23
-5 -3 -10 -14 -11 -23 0 -9 -8 -35 -18 -56 l-17 -39 -105 148 c-116 165 -122
175 -115 175 2 0 35 -20 73 -44z m907 22 c-4 -7 -55 -76 -113 -153 l-105 -139
-18 39 c-24 55 -24 111 1 125 16 8 20 6 24 -8 4 -12 5 -11 6 6 1 13 10 27 24
32 12 6 31 16 41 22 42 28 141 88 144 88 2 0 0 -6 -4 -12z m-374 -12 c0 -2
-13 -20 -30 -41 -35 -45 -39 -39 -7 10 19 29 37 45 37 31z m-20 -121 c-39 -50
-62 -73 -44 -42 48 78 78 119 82 109 2 -7 -15 -37 -38 -67z m-530 9 c0 -2 -7
-4 -15 -4 -8 0 -15 4 -15 10 0 5 7 7 15 4 8 -4 15 -8 15 -10z m600 -15 c0 -5
-23 -38 -51 -72 -65 -79 -78 -91 -50 -47 12 19 36 58 53 87 29 46 48 59 48 32z
m-584 -29 c15 -6 24 -13 22 -16 -8 -8 -58 7 -58 17 0 11 3 11 36 -1z m859 -20
c-3 -5 -16 -10 -28 -10 -18 0 -19 2 -7 10 20 13 43 13 35 0z m-251 -15 c3 -10
-21 -47 -66 -103 -39 -48 -69 -82 -67 -75 7 22 114 192 120 193 4 0 9 -7 13
-15z m-539 -47 c5 -4 -13 -2 -40 7 -28 8 -51 15 -52 15 -2 0 -3 4 -3 10 0 10
77 -16 95 -32z m785 13 c0 -8 -78 -32 -97 -30 -12 1 70 38 85 39 6 0 12 -4 12
-9z m-216 -37 c4 -9 1 -24 -6 -33 -51 -64 -160 -194 -157 -185 9 24 144 234
150 234 4 0 10 -7 13 -16z m-579 -14 c22 -10 33 -19 25 -19 -24 -1 -89 19 -95
29 -10 16 26 10 70 -10z m779 -4 c-5 -14 -71 -32 -81 -22 -3 3 5 9 18 14 13 5
31 12 39 15 25 9 30 8 24 -7z m-1094 -236 c-8 -5 -24 -9 -35 -9 l-20 0 20 9
c11 5 27 9 35 9 13 1 13 0 0 -9z m1385 0 c19 -8 19 -9 -2 -9 -12 -1 -25 4 -28
9 -7 12 2 12 30 0z m-1330 -40 c-46 -21 -55 -23 -55 -11 0 4 15 13 33 19 52
16 65 12 22 -8z m1289 0 c11 -4 15 -9 10 -12 -5 -3 -29 3 -54 13 -42 18 -43
19 -10 13 19 -4 44 -10 54 -14z m-1175 -14 c-14 -14 -115 -44 -122 -37 -6 6 8
14 34 21 24 6 49 13 54 15 14 5 39 6 34 1z m1105 -17 c23 -6 35 -14 29 -20 -5
-5 -30 0 -63 12 -91 35 -79 37 34 8z m-1034 -26 c-101 -44 -127 -52 -139 -40
-9 9 7 17 66 33 92 25 122 28 73 7z m958 -9 c45 -12 60 -20 53 -27 -11 -11
-90 11 -141 40 l-25 14 25 -6 c14 -3 53 -13 88 -21z m-819 -8 c-2 -3 -50 -23
-106 -44 -86 -34 -104 -38 -114 -26 -14 16 -18 15 111 48 100 26 116 29 109
22z m676 -15 c39 -11 89 -24 113 -31 40 -10 50 -30 14 -30 -17 0 -202 69 -202
76 0 6 -2 6 75 -15z m-586 -25 c-2 -2 -56 -25 -119 -50 -101 -41 -116 -44
-129 -31 -8 8 -13 17 -10 19 5 6 228 64 248 65 8 1 12 -1 10 -3z m548 -29 c66
-18 122 -36 123 -42 5 -30 -33 -24 -150 24 -69 27 -118 50 -110 50 8 0 70 -15
137 -32z m-53 -365 c141 -194 256 -355 256 -357 0 -2 -38 19 -85 47 -47 28
-85 57 -85 65 0 8 -4 12 -9 9 -18 -12 -41 7 -41 33 -1 24 -2 25 -14 8 -13 -17
-15 -17 -30 5 -9 13 -17 46 -17 78 -1 30 -4 42 -6 25 -2 -16 -6 -45 -9 -63 -5
-33 -6 -33 -25 -16 -16 14 -19 31 -20 98 -1 93 -5 91 -14 -7 -7 -67 -7 -68
-26 -51 -15 14 -19 32 -20 88 -2 110 -17 138 -18 33 -1 -79 -3 -88 -18 -85
-16 3 -19 23 -28 143 l-11 140 -8 -122 c-5 -68 -10 -123 -13 -123 -2 0 -13 5
-24 10 -18 10 -19 23 -19 217 0 176 2 205 14 193 7 -8 129 -174 270 -368z
m-106 343 c250 -70 231 -63 225 -86 -4 -14 -11 -18 -22 -14 -9 4 -88 34 -176
67 -218 81 -223 87 -27 33z m-704 -30 l49 -43 -134 -42 c-74 -22 -147 -45
-163 -51 -25 -8 -48 -5 -35 4 2 2 26 21 54 43 27 21 54 42 60 47 5 4 22 18 38
32 15 13 33 23 40 21 6 -1 8 -1 4 2 -10 5 12 32 27 32 6 -1 33 -21 60 -45z
m1095 12 c6 -8 8 -17 4 -20 -3 -4 3 -7 15 -7 11 0 25 -6 29 -13 4 -7 41 -41
81 -76 40 -35 71 -66 69 -68 -3 -3 -147 46 -276 94 l-44 16 49 43 c55 48 57
49 73 31z m-271 -94 c82 -21 106 -31 112 -47 4 -12 7 -22 6 -23 -3 -3 -260 98
-266 105 -5 5 -1 4 148 -35z m-834 -53 c-24 -36 -44 -51 -44 -34 0 9 54 72 63
73 4 1 -5 -17 -19 -39z m60 -9 c-16 -28 -44 -43 -44 -24 0 10 53 64 58 59 2
-3 -4 -18 -14 -35z m419 -157 c3 -61 2 -73 -14 -83 -18 -10 -19 -7 -19 42 0
30 3 96 7 148 l7 94 7 -65 c4 -36 9 -97 12 -136z m587 119 c0 -7 -2 -13 -5
-13 -7 0 -55 73 -55 84 0 15 59 -57 60 -71z m-1132 38 c-7 -12 -16 -21 -21
-21 -4 0 0 11 9 25 20 30 31 26 12 -4z m-66 -13 c-7 -7 -12 -8 -12 -2 0 14 12
26 19 19 2 -3 -1 -11 -7 -17z m1015 -9 c61 -16 82 -26 86 -40 3 -10 4 -19 2
-19 -2 0 -50 18 -106 40 -99 39 -140 60 -89 46 14 -3 62 -16 107 -27z m236
-19 c-6 -6 -33 30 -33 44 0 6 9 0 20 -14 10 -14 16 -27 13 -30z m47 15 c7 -9
8 -15 2 -15 -5 0 -12 7 -16 15 -3 8 -4 15 -2 15 2 0 9 -7 16 -15z m-762 -252
c-19 -24 -25 -3 -21 74 7 142 16 158 24 43 4 -67 3 -110 -3 -117z m507 179
c49 -13 71 -23 73 -35 3 -16 0 -16 -45 2 -134 53 -142 62 -28 33z m-567 -166
c-2 -32 -8 -51 -17 -54 -10 -4 -12 1 -8 19 4 13 7 56 8 94 1 66 1 68 10 30 6
-22 8 -62 7 -89z m608 88 c30 -8 54 -20 54 -25 0 -11 -20 -6 -90 22 -56 22
-36 24 36 3z m-675 -177 c-8 -8 -11 7 -11 49 0 79 14 93 18 18 2 -31 -2 -62
-7 -67z m712 107 c15 -3 27 -10 27 -16 0 -11 -33 -2 -70 19 -19 10 -20 12 -5
9 11 -3 32 -8 48 -12z m-474 -131 c0 -65 -4 -138 -7 -163 l-7 -45 -44 108
c-36 88 -41 110 -31 122 11 13 10 14 -4 9 -10 -4 -16 -1 -16 9 0 13 82 74 103
76 4 1 7 -52 6 -116z m66 57 c15 -22 25 -43 22 -46 -5 -5 -57 68 -57 81 0 12
9 3 35 -35z m-358 -47 c-2 -16 -4 -3 -4 27 0 30 2 43 4 28 2 -16 2 -40 0 -55z
m403 56 c0 -6 -4 -7 -10 -4 -5 3 -10 11 -10 16 0 6 5 7 10 4 6 -3 10 -11 10
-16z m399 -5 c13 -12 -8 -10 -29 2 l-25 15 25 -7 c14 -3 27 -8 29 -10z m-852
-91 c-3 -10 -5 -2 -5 17 0 19 2 27 5 18 2 -10 2 -26 0 -35z m412 -8 c0 -5 -9
1 -19 14 -11 13 -20 28 -20 35 0 6 9 0 20 -14 11 -14 20 -29 19 -35z"/>
</g>
</svg>
