<?xml version="1.0" standalone="no"?>
<!DOCTYPE svg PUBLIC "-//W3C//DTD SVG 20010904//EN"
 "http://www.w3.org/TR/2001/REC-SVG-20010904/DTD/svg10.dtd">
<svg version="1.0" xmlns="http://www.w3.org/2000/svg"
 width="444.000000pt" height="45.000000pt" viewBox="0 0 444.000000 45.000000"
 preserveAspectRatio="xMidYMid meet">

<g transform="translate(0.000000,45.000000) scale(0.100000,-0.100000)"
fill="#000000" stroke="none">
<path d="M3555 429 c-88 -22 -155 -95 -163 -179 -5 -60 16 -126 53 -160 30
-29 33 -18 4 13 -75 78 -60 210 32 276 58 43 74 39 22 -5 -98 -82 -90 -238 16
-310 39 -26 37 -30 -6 -13 -15 5 -23 6 -18 1 25 -24 118 -44 172 -38 138 16
223 100 223 219 0 71 -43 139 -111 174 -54 28 -160 38 -224 22z m132 -24 c30
-21 43 -74 43 -175 0 -98 -11 -144 -42 -177 -44 -47 -105 -18 -127 62 -14 51
-14 179 0 228 19 71 75 98 126 62z m86 -71 c22 -61 18 -184 -8 -238 -22 -47
-35 -46 -24 2 12 50 11 219 0 260 -16 54 11 34 32 -24z"/>
<path d="M4095 429 c-88 -22 -155 -95 -163 -179 -5 -60 16 -126 53 -160 30
-29 33 -18 4 13 -75 78 -60 210 32 276 58 43 74 39 22 -5 -98 -82 -90 -238 16
-310 39 -26 37 -30 -6 -13 -15 5 -23 6 -18 1 25 -24 118 -44 172 -38 138 16
223 100 223 219 0 71 -43 139 -111 174 -54 28 -160 38 -224 22z m132 -24 c30
-21 43 -74 43 -175 0 -98 -11 -144 -42 -177 -44 -47 -105 -18 -127 62 -14 51
-14 179 0 228 19 71 75 98 126 62z m86 -71 c22 -61 18 -184 -8 -238 -22 -47
-35 -46 -24 2 12 50 11 219 0 260 -16 54 11 34 32 -24z"/>
<path d="M592 421 c-37 -10 -95 -53 -125 -93 -22 -29 -33 -100 -23 -151 4 -20
23 -54 46 -79 22 -23 37 -35 34 -26 -3 10 -10 18 -15 18 -4 0 -20 20 -34 43
-53 91 -19 205 76 256 l44 24 -46 -44 c-88 -83 -91 -199 -9 -282 31 -30 34
-37 17 -32 -15 4 -12 0 8 -11 44 -25 152 -30 212 -10 81 27 153 118 153 194 0
16 -12 53 -27 83 -40 78 -98 111 -201 115 -42 2 -92 -1 -110 -5z m152 -44 c19
-25 21 -42 21 -145 0 -131 -14 -175 -62 -193 -35 -13 -73 14 -90 62 -15 42
-16 201 -3 251 13 45 33 59 79 55 24 -1 40 -10 55 -30z m62 -34 c12 -30 18
-74 18 -118 0 -44 -6 -88 -18 -118 -20 -54 -39 -63 -28 -14 4 17 7 77 7 132 0
55 -3 115 -7 133 -11 48 8 39 28 -15z"/>
<path d="M1107 416 c-97 -36 -154 -119 -144 -208 4 -28 17 -66 29 -84 31 -45
32 -37 3 21 -14 26 -25 62 -25 80 0 47 40 116 89 153 55 41 66 34 16 -10 -46
-40 -65 -82 -65 -143 0 -63 20 -105 70 -147 35 -30 38 -36 19 -32 -13 2 -6 -3
16 -12 61 -24 170 -15 230 20 144 85 139 272 -10 349 -51 26 -174 33 -228 13z
m143 -16 c28 -15 40 -65 40 -172 0 -109 -14 -157 -53 -182 -32 -22 -71 -7 -92
34 -35 68 -31 257 6 304 22 28 65 34 99 16z m86 -77 c11 -38 15 -78 12 -122
-5 -63 -32 -150 -44 -139 -3 3 0 42 6 85 7 55 7 101 0 149 -12 87 -12 97 0 89
5 -3 17 -31 26 -62z"/>
<path d="M2010 420 c0 -3 15 -10 33 -15 19 -6 37 -21 45 -37 12 -25 8 -36 -49
-150 -62 -125 -92 -168 -116 -168 -7 0 -13 -4 -13 -10 0 -6 33 -10 80 -10 44
0 80 4 80 9 0 5 -12 9 -26 9 -40 0 -57 40 -34 83 9 17 22 19 101 19 l89 0 17
-34 c18 -40 12 -66 -16 -66 -11 0 -23 -4 -26 -10 -4 -6 47 -10 145 -10 98 0
149 4 145 10 -3 6 -15 10 -25 10 -18 0 -52 56 -164 277 l-47 92 -110 3 c-60 2
-109 1 -109 -2z m213 -189 c48 -92 87 -171 87 -175 0 -3 -6 -6 -13 -6 -10 0
-187 324 -187 344 0 3 6 6 13 6 7 0 52 -76 100 -169z m-74 18 c17 -33 31 -65
31 -70 0 -5 -34 -9 -76 -9 -42 0 -74 4 -72 8 21 53 65 132 74 132 7 0 26 -27
43 -61z"/>
<path d="M2688 422 l-186 -2 -4 -80 c-2 -44 -1 -80 2 -80 3 0 16 23 29 51 33
68 58 99 76 92 12 -4 15 -33 15 -160 0 -87 -4 -163 -10 -174 -8 -13 -21 -19
-45 -19 -19 0 -35 -4 -35 -10 0 -6 62 -10 166 -10 107 0 163 3 159 10 -3 6
-19 10 -34 10 -15 0 -32 5 -39 12 -15 15 -17 334 -3 343 14 8 39 -21 72 -87
17 -33 32 -58 34 -56 2 2 1 40 -3 83 l-7 80 -187 -3z m-18 -197 c0 -149 -2
-175 -15 -175 -13 0 -15 26 -15 175 0 149 2 175 15 175 13 0 15 -26 15 -175z"/>
<path d="M14 335 c-5 -47 -6 -85 -3 -85 3 0 18 27 34 60 31 66 58 96 74 85 14
-8 15 -299 1 -326 -8 -13 -21 -19 -45 -19 -19 0 -35 -4 -35 -10 0 -6 60 -10
160 -10 100 0 160 4 160 10 0 6 -13 10 -29 10 -52 0 -61 26 -61 185 0 194 14
206 85 81 l35 -61 -2 80 -3 80 -181 3 -180 2 -10 -85z m164 -113 c-4 -216 -22
-221 -26 -7 -3 163 1 196 19 178 6 -6 8 -74 7 -171z"/>
<path d="M1507 413 c-4 -3 -7 -40 -7 -82 l0 -76 35 61 c42 74 62 94 76 73 5
-8 9 -77 9 -154 0 -159 -9 -185 -61 -185 -16 0 -29 -4 -29 -10 0 -6 60 -10
160 -10 100 0 160 4 160 10 0 6 -16 10 -35 10 -24 0 -37 6 -45 19 -14 26 -13
318 0 326 17 11 39 -14 76 -84 l35 -66 -5 55 c-3 30 -6 70 -6 88 l0 32 -178 0
c-98 0 -182 -3 -185 -7z m153 -193 c0 -107 -4 -170 -10 -170 -6 0 -10 63 -10
170 0 107 4 170 10 170 6 0 10 -63 10 -170z"/>
<path d="M2950 338 l0 -83 36 65 c37 67 60 93 75 84 5 -3 9 -79 9 -168 0 -180
-4 -192 -61 -188 -16 1 -29 -2 -29 -8 0 -6 60 -10 166 -10 116 0 163 3 158 11
-3 6 -14 9 -24 6 -11 -3 -28 2 -39 10 -20 13 -21 24 -21 178 0 95 4 166 10
170 13 8 38 -22 77 -92 l33 -58 0 60 c0 113 16 105 -201 105 l-189 0 0 -82z
m170 -114 c0 -136 -3 -175 -12 -172 -10 4 -14 50 -16 176 -2 149 0 172 13 172
13 0 15 -25 15 -176z"/>
<path d="M1045 70 c10 -11 20 -20 23 -20 3 0 -3 9 -13 20 -10 11 -20 20 -23
20 -3 0 3 -9 13 -20z"/>
</g>
</svg>
